<?xml version="1.0" standalone="no"?>
<!DOCTYPE svg PUBLIC "-//W3C//DTD SVG 20010904//EN"
 "http://www.w3.org/TR/2001/REC-SVG-20010904/DTD/svg10.dtd">
<svg version="1.0" xmlns="http://www.w3.org/2000/svg"
 width="1120.000000pt" height="1120.000000pt" viewBox="0 0 1120.000000 1120.000000"
 preserveAspectRatio="xMidYMid meet">

<g transform="translate(0.000000,1120.000000) scale(0.100000,-0.100000)"
fill="#000000" stroke="none">
<path d="M7397 7540 c-25 -89 -147 -320 -230 -436 -125 -175 -185 -244 -406
-465 -290 -289 -446 -414 -770 -614 -114 -70 -222 -174 -253 -241 -21 -44 -23
-63 -22 -194 1 -80 6 -180 13 -223 16 -113 14 -331 -5 -445 -23 -139 -15 -362
16 -452 63 -185 177 -331 306 -392 65 -31 76 -33 174 -33 104 1 181 15 264 50
21 9 36 18 33 21 -3 3 -33 12 -67 20 -220 51 -449 203 -576 380 -73 103 -87
143 -82 243 5 96 22 138 93 231 136 178 173 254 196 399 13 87 -1 198 -36 281
-14 33 -25 62 -25 65 0 3 190 5 423 5 464 1 537 7 626 56 126 68 267 219 335
360 55 111 103 266 121 389 22 146 22 386 0 539 -16 110 -98 503 -108 512 -2
2 -11 -23 -20 -56z"/>
<path d="M3780 7568 c0 -7 -16 -69 -35 -138 -90 -326 -120 -730 -71 -960 65
-304 218 -547 409 -654 121 -68 133 -69 626 -73 244 -1 445 -4 447 -6 2 -1 -8
-40 -22 -87 -42 -147 -27 -326 41 -459 14 -29 66 -108 115 -177 150 -210 157
-289 42 -469 -57 -90 -169 -205 -252 -260 -73 -49 -221 -116 -322 -146 -38
-11 -68 -24 -68 -29 0 -18 224 -70 305 -70 96 0 219 60 292 143 51 58 120 170
147 238 15 36 42 126 62 200 19 73 42 161 51 194 15 52 17 120 18 500 1 394 3
446 19 499 30 101 75 177 142 243 35 35 64 65 64 68 0 3 -13 23 -29 46 -26 35
-51 112 -51 155 0 26 54 72 100 84 23 6 76 12 116 12 82 0 90 8 52 52 -16 18
-44 31 -93 43 -38 9 -79 24 -90 34 -69 61 -209 50 -320 -26 -96 -66 -124 -78
-205 -90 l-75 -11 58 -22 c34 -13 80 -22 112 -22 79 0 79 0 -49 -289 -26 -58
-48 -106 -50 -108 -6 -6 -217 139 -362 250 -349 265 -727 655 -919 947 -69
105 -152 269 -172 340 -15 54 -33 80 -33 48z m1948 -1061 c17 -13 15 -44 -4
-51 -27 -10 -57 -7 -107 12 -42 16 -46 20 -33 32 33 26 114 31 144 7z"/>
<path d="M7127 5665 c-43 -23 -97 -46 -120 -50 -23 -3 -199 -10 -392 -14 -192
-4 -358 -11 -367 -15 -11 -5 -19 -23 -22 -49 -10 -84 -21 -245 -18 -260 5 -26
163 -83 297 -106 81 -15 157 0 262 49 136 64 226 137 323 265 51 66 122 193
118 210 -2 9 -27 0 -81 -30z"/>
<path d="M3980 5686 c0 -25 79 -156 144 -240 71 -91 155 -160 256 -211 171
-85 257 -90 455 -26 72 23 134 46 138 50 12 12 -10 312 -23 325 -7 7 -136 13
-383 17 -402 6 -410 7 -514 65 -69 38 -73 39 -73 20z"/>
<path d="M5505 4341 c-36 -78 -140 -240 -232 -365 -44 -59 -56 -133 -28 -185
21 -41 93 -76 141 -68 36 6 33 12 50 -118 9 -72 67 -188 123 -246 52 -54 66
-55 93 -11 10 15 33 50 53 77 42 60 74 155 77 235 l3 58 48 5 c86 8 142 73
134 155 -4 33 -19 64 -66 130 -101 142 -150 218 -197 305 l-44 82 3 -235 c2
-249 -8 -341 -43 -395 l-18 -27 -16 25 c-44 66 -57 203 -45 463 4 109 7 199 6
200 -1 1 -20 -37 -42 -85z"/>
</g>
</svg>
