<?xml version="1.0" encoding="UTF-8"?>
<svg version="1.0" xmlns="http://www.w3.org/2000/svg"
 width="500pt" height="500pt" viewBox="0 0 500 500"
 preserveAspectRatio="xMidYMid meet">
<g transform="translate(0.000000,500.000000) scale(0.100000,-0.100000)"
fill="currentColor" stroke="none">
<path d="M366 4948 c-27 -97 -65 -252 -80 -328 -45 -229 -50 -280 -50 -565 l0
-280 37 -122 c113 -378 276 -603 524 -721 l74 -35 262 -8 c144 -4 392 -8 550
-8 244 -1 288 -3 293 -16 3 -8 -2 -43 -11 -77 -41 -153 -26 -417 29 -526 25
-49 179 -286 201 -308 6 -6 25 -40 44 -76 55 -109 53 -230 -7 -338 -38 -68
-140 -197 -202 -254 -29 -28 -63 -60 -75 -72 -44 -45 -363 -204 -409 -204 -22
0 -96 -31 -96 -40 0 -18 262 -80 339 -80 69 0 140 23 217 68 170 100 289 295
374 612 73 276 80 350 80 961 1 393 5 423 73 557 30 60 60 102 105 145 87 85
89 90 57 137 -34 49 -65 132 -65 173 0 42 45 90 103 111 35 12 134 25 210 26
9 0 17 6 17 14 0 24 -58 65 -123 85 -34 10 -86 32 -115 47 -114 59 -241 41
-394 -57 -94 -61 -166 -89 -225 -89 -18 0 -33 -4 -33 -10 0 -12 95 -40 139
-40 90 0 97 -18 57 -129 -36 -100 -146 -341 -155 -341 -12 0 -157 91 -231 145
-41 30 -86 63 -99 72 -14 10 -57 43 -95 73 -39 31 -94 72 -121 92 -28 20 -59
46 -70 58 -11 13 -49 46 -85 75 -119 97 -480 464 -569 580 -17 22 -54 67 -82
100 -127 151 -300 447 -345 590 -10 30 -21 55 -25 55 -4 0 -14 -24 -23 -52z
m2286 -1175 c36 -33 12 -73 -45 -73 -33 0 -113 29 -127 45 -30 37 133 64 172
28z"/>
<path d="M4601 4961 c-27 -91 -190 -387 -305 -554 -135 -195 -682 -750 -866
-878 -19 -13 -51 -38 -70 -54 -41 -35 -285 -201 -384 -261 -89 -54 -223 -166
-266 -223 -56 -75 -70 -126 -70 -259 1 -64 6 -164 11 -222 20 -199 19 -431 -3
-615 -18 -152 -19 -185 -9 -308 7 -76 19 -157 27 -180 85 -246 205 -397 379
-479 60 -28 74 -30 173 -30 118 1 222 19 302 53 61 26 58 29 -61 58 -108 26
-192 63 -317 141 -125 77 -230 171 -310 279 -95 127 -106 156 -106 278 1 122
17 173 81 255 78 101 191 279 211 332 59 155 56 364 -7 523 l-21 53 23 4 c12
3 252 7 532 10 295 2 530 9 557 15 25 5 66 19 90 30 64 31 212 152 266 218 25
32 57 69 69 83 44 48 120 210 169 360 54 167 64 251 64 542 l0 269 -45 222
c-59 293 -78 370 -91 374 -6 2 -16 -14 -23 -36z"/>
<path d="M610 2813 c1 -23 128 -226 186 -296 71 -87 199 -192 274 -225 180
-80 168 -77 285 -77 112 1 183 16 359 78 l59 21 -6 145 c-8 184 -14 219 -40
232 -12 7 -173 15 -421 20 -220 5 -421 12 -446 14 -58 7 -123 31 -179 67 -44
27 -71 35 -71 21z"/>
<path d="M4278 2779 c-97 -52 -125 -55 -616 -69 -211 -5 -391 -14 -401 -20
-10 -5 -21 -24 -25 -42 -8 -44 -21 -210 -21 -273 0 -47 2 -50 38 -71 21 -12
93 -37 160 -55 103 -29 137 -34 222 -33 84 1 109 5 155 26 30 13 67 28 81 31
38 10 202 122 254 173 91 91 221 278 248 357 9 26 -9 21 -95 -24z"/>
<path d="M2421 1298 c-25 -63 -43 -96 -130 -236 -52 -83 -114 -175 -137 -203
-57 -70 -89 -165 -73 -221 6 -22 16 -49 22 -59 16 -26 98 -59 146 -59 44 0 39
9 61 -119 26 -150 148 -351 214 -351 8 0 22 10 31 23 50 70 108 169 126 216
17 47 38 159 39 214 0 12 8 17 28 17 58 0 122 30 148 70 40 61 41 98 5 177
-18 37 -42 79 -55 93 -43 47 -151 215 -237 366 l-26 46 -6 -298 c-5 -315 -14
-380 -55 -417 -18 -16 -20 -16 -35 1 -51 57 -71 237 -60 550 5 116 7 212 5
212 -1 0 -6 -10 -11 -22z"/>
</g>
</svg>